<?xml version="1.0" standalone="no"?><!DOCTYPE svg PUBLIC "-//W3C//DTD SVG 1.1//EN" "http://www.w3.org/Graphics/SVG/1.1/DTD/svg11.dtd"><svg t="1603271072714" class="icon" viewBox="0 0 1024 1024" version="1.1" xmlns="http://www.w3.org/2000/svg" p-id="6484" width="512" height="512" xmlns:xlink="http://www.w3.org/1999/xlink"><defs><style type="text/css"></style></defs><path d="M989.6192 560h-258.8288c-18.6016 85.168-85.6256 152.1888-170.7904 170.7904v258.8288a477.728 477.728 0 0 0 94.832-19.232C693.9616 1003.7792 744.6496 1024 800 1024c123.5136 0 224-100.4864 224-224 0-55.3504-20.2208-106.0384-53.6096-145.168A477.4464 477.4464 0 0 0 989.6192 560zM800 960a158.9408 158.9408 0 0 1-74.0544-18.2368c93.2896-46.5312 169.2864-122.528 215.8176-215.8176A158.9696 158.9696 0 0 1 960 800c0 88.224-71.776 160-160 160zM730.7904 464h258.8256a477.4464 477.4464 0 0 0-19.2288-94.832C1003.7792 330.0384 1024 279.3504 1024 224c0-123.5136-100.4864-224-224-224-55.3504 0-106.0384 20.2208-145.168 53.6128A477.728 477.728 0 0 0 560 34.3808v258.8288c85.1648 18.6016 152.1888 85.6224 170.7904 170.7904zM800 64c88.224 0 160 71.776 160 160a158.992 158.992 0 0 1-18.2368 74.0576C895.232 204.768 819.2352 128.7712 725.9456 82.24A158.9024 158.9024 0 0 1 800 64zM293.2096 560H34.384a477.4464 477.4464 0 0 0 19.2288 94.832C20.2208 693.9616 0 744.6496 0 800c0 123.5136 100.4864 224 224 224 55.3504 0 106.0384-20.2208 145.168-53.6128a477.728 477.728 0 0 0 94.832 19.232v-258.8288c-85.1648-18.6016-152.1888-85.6224-170.7904-170.7904zM224 960c-88.224 0-160-71.776-160-160a158.992 158.992 0 0 1 18.2368-74.0576c46.5312 93.2896 122.528 169.2864 215.8176 215.8176A158.9024 158.9024 0 0 1 224 960zM224 0C100.4864 0 0 100.4864 0 224c0 55.3504 20.2208 106.0384 53.6096 145.168A477.6736 477.6736 0 0 0 34.3808 464h258.8256c18.6048-85.168 85.6288-152.1888 170.7936-170.7904V34.3808a477.728 477.728 0 0 0-94.832 19.232C330.0384 20.2208 279.3504 0 224 0zM82.2368 298.0576A158.992 158.992 0 0 1 64 224c0-88.224 71.776-160 160-160a158.9408 158.9408 0 0 1 74.0544 18.2368C204.7648 128.768 128.768 204.7648 82.2368 298.0576z" p-id="6485" fill="#0061b2"></path></svg>